HIERARCHY
ROOT Hips
{
	OFFSET 0.000000 0.000000 0.000000
	CHANNELS 6 Xposition Yposition Zposition Zrotation Yrotation Xrotation 
	JOINT LHipJoint
	{
		OFFSET 0.000000 0.000000 0.000000
		CHANNELS 3 Zrotation Yrotation Xrotation
		JOINT LeftUpLeg
		{
			OFFSET 1.363060 -1.794630 0.839290
			CHANNELS 3 Zrotation Yrotation Xrotation
			JOINT LeftLeg
			{
				OFFSET 2.448110 -6.726130 0.000000
				CHANNELS 3 Zrotation Yrotation Xrotation
				JOINT LeftFoot
				{
					OFFSET 2.562200 -7.039590 0.000000
					CHANNELS 3 Zrotation Yrotation Xrotation
					JOINT LeftToeBase
					{
						OFFSET 0.157640 -0.433110 2.322550
						CHANNELS 3 Zrotation Yrotation Xrotation
						End Site
						{
							OFFSET 0.000000 0.000000 0.000000
						}
					}
				}
			}
		}
	}
	JOINT RHipJoint
	{
		OFFSET 0.000000 0.000000 0.000000
		CHANNELS 3 Zrotation Yrotation Xrotation
		JOINT RightUpLeg
		{
			OFFSET -1.305520 -1.794630 0.839290
			CHANNELS 3 Zrotation Yrotation Xrotation
			JOINT RightLeg
			{
				OFFSET -2.542530 -6.985550 0.000000
				CHANNELS 3 Zrotation Yrotation Xrotation
				JOINT RightFoot
				{
					OFFSET -2.568260 -7.056230 0.000000
					CHANNELS 3 Zrotation Yrotation Xrotation
					JOINT RightToeBase
					{
						OFFSET -0.164730 -0.452590 2.363150
						CHANNELS 3 Zrotation Yrotation Xrotation
						End Site
						{
							OFFSET 0.000000 0.000000 0.000000
						}
					}
				}
			}
		}
	}
}
MOTION
Frames: 19
Frame Time: 0.008333
-0.775233 17.275356 -2.878648 126.129647 -84.302486 -111.118813 -9.781033 0.014634 3.385872 -4.838990 -8.660163 -36.965099 0.858252 1.409927 44.904785 3.936803 25.550558 11.786043 9.058700 0.000000 -52.014900 9.619000 -1.018812 2.967273 7.681821 4.994156 -22.292996 1.571664 -0.219409 18.257285 -2.304708 -8.266348 -11.182819 0.031000 0.000000 -44.826200
-0.746266 17.288785 -2.910125 122.919321 -84.064866 -108.264731 -9.659316 -0.151507 3.408696 -4.982989 -9.627711 -38.725746 1.030315 1.583095 48.545169 3.858265 25.029521 14.722496 9.850800 0.000000 -51.867000 9.862899 -0.912093 2.749463 7.240337 4.284022 -21.985677 1.531638 -0.262933 18.301471 -2.211057 -7.925515 -10.994983 0.011100 0.000000 -45.549700
-0.714188 17.303965 -2.940412 119.888106 -83.790839 -105.624964 -9.532349 -0.327089 3.399148 -5.187316 -10.500949 -40.548930 1.179944 1.760152 52.265856 3.755763 24.131136 17.599019 10.346500 -0.000000 -51.417901 10.113273 -0.793253 2.529873 6.748186 3.618479 -21.600126 1.478436 -0.301352 18.286899 -2.131059 -7.657570 -10.773487 -0.014200 0.000001 -46.247500
-0.679042 17.320756 -2.969531 117.100236 -83.482944 -103.263188 -9.402749 -0.510563 3.350694 -5.456018 -11.261424 -42.424948 1.311652 1.946552 56.059001 3.636274 22.884430 20.314214 10.502100 0.000000 -50.710600 10.366153 -0.664679 2.311621 6.210373 3.021830 -21.124664 1.411191 -0.334281 18.205213 -2.068128 -7.478328 -10.520833 -0.044800 -0.000000 -46.887500
-0.640535 17.338987 -2.997590 114.589224 -83.146018 -101.217319 -9.272821 -0.701383 3.257281 -5.790117 -11.894946 -44.342525 1.433179 2.146762 59.914896 3.507433 21.354535 22.797167 10.325300 -0.000000 -49.908900 10.618459 -0.528767 2.096057 5.634178 2.513380 -20.547782 1.329547 -0.362111 18.050143 -2.024629 -7.399653 -10.237870 -0.081300 -0.000000 -47.457100
-0.598520 17.358454 -3.024760 112.361113 -82.786140 -99.495818 -9.144004 -0.899640 3.114229 -6.186778 -12.393223 -46.291156 1.553852 2.363512 63.821424 3.376718 19.633567 25.003260 9.865800 -0.000000 -49.131400 10.868242 -0.387829 1.882961 5.028326 2.105894 -19.860729 1.233747 -0.385798 17.819151 -2.001830 -7.428191 -9.925682 -0.124600 -0.000000 -47.948900
-0.552737 17.378854 -3.051262 110.396578 -82.410531 -98.081842 -9.016555 -1.106334 2.918674 -6.639160 -12.755088 -48.262702 1.683110 2.597464 67.763460 3.251273 17.832515 26.916208 9.204600 0.000001 -48.524201 11.114536 -0.243687 1.670439 4.402556 1.804204 -19.059386 1.124780 -0.406932 17.514954 -1.999730 -7.564164 -9.585882 -0.175900 0.000000 -48.362500
-0.503205 17.399829 -3.077306 108.664869 -82.026401 -96.943391 -8.889905 -1.322617 2.669609 -7.136457 -12.983912 -50.255220 1.829941 2.848048 71.725940 3.136188 16.059605 28.523714 8.429100 -0.000000 -48.011400 11.356921 -0.097925 1.455866 3.767849 1.606188 -18.146072 1.004332 -0.427444 17.145626 -2.017337 -7.802378 -9.220500 -0.236300 0.000000 -48.701401
-0.449827 17.420994 -3.103270 107.116194 -81.636857 -96.029810 -8.760707 -1.550737 2.370463 -7.664813 -13.098593 -52.264916 1.999495 3.110847 75.674509 3.038899 14.440998 29.884807 7.652900 0.000000 -48.096700 11.596716 0.049470 1.234529 3.130559 1.496701 -17.130240 0.874524 -0.449796 16.726550 -2.051705 -8.127497 -8.832072 -0.306700 0.000000 -48.992100
-0.392753 17.441888 -3.129379 105.704747 -81.246853 -95.290609 -8.626266 -1.791979 2.025114 -8.208581 -13.113611 -54.301979 2.196964 3.383070 79.585763 2.960928 13.054126 31.000808 6.946000 -0.000001 -48.444401 11.834390 0.198324 1.002439 2.499612 1.456579 -16.028954 0.738300 -0.476251 16.277661 -2.099417 -8.520808 -8.424734 -0.387500 0.000000 -49.249500
-0.332091 17.461902 -3.155804 104.389147 -80.859324 -94.678395 -8.483027 -2.048705 1.640348 -8.748061 -13.049467 -56.383506 2.425104 3.660637 83.429940 2.903604 11.961443 31.893280 6.369300 -0.000000 -49.085400 12.069882 0.349313 0.755860 1.882661 1.462840 -14.867889 0.599005 -0.508939 15.825892 -2.156489 -8.959152 -8.007575 -0.477400 0.000000 -49.490300
-0.268321 17.480473 -3.182604 103.137627 -80.476988 -94.151005 -8.327096 -2.322856 1.225557 -9.264292 -12.930138 -58.531044 2.684687 3.939041 87.172110 2.866461 11.193742 32.579416 5.959500 0.000000 -49.878300 12.302741 0.503211 0.491603 1.284497 1.487084 -13.678398 0.460309 -0.549526 15.400946 -2.217914 -9.414206 -7.589507 -0.574300 -0.000001 -49.741101
-0.202147 17.496954 -3.209899 101.933490 -80.097887 -93.677914 -8.154174 -2.616033 0.791708 -9.737877 -12.779473 -60.770789 2.974089 4.213729 90.774148 2.847725 10.750509 33.077060 5.729299 0.000000 -50.741300 12.531896 0.661245 0.207854 0.707712 1.502002 -12.496617 0.325586 -0.598984 15.034874 -2.278674 -9.856432 -7.184148 -0.673500 -0.000000 -50.017800
-0.134039 17.510810 -3.237491 100.764761 -79.721782 -93.239542 -7.960064 -2.929045 0.350314 -10.154859 -12.620617 -63.125573 3.289364 4.480173 94.194757 2.844415 10.601460 33.402240 5.667900 -0.000000 -51.584101 12.756141 0.824829 -0.097159 0.149198 1.477639 -11.355956 0.198080 -0.657957 14.757943 -2.333065 -10.253788 -6.804052 -0.769600 0.000000 -50.345800
-0.065014 17.521453 -3.265305 99.650570 -79.345421 -92.838968 -7.741006 -3.261839 -0.087289 -10.500225 -12.469535 -65.622741 3.624962 4.734620 97.395010 2.852157 10.686342 33.564891 5.740600 0.000000 -52.254900 12.972574 0.994641 -0.421464 -0.392518 1.398787 -10.292368 0.080306 -0.726232 14.599133 -2.377164 -10.581842 -6.467237 -0.855300 -0.000000 -50.724600
0.004194 17.528364 -3.293003 98.612962 -78.965869 -92.488441 -7.493177 -3.612732 -0.511115 -10.765479 -12.338044 -68.280790 3.972085 4.973506 100.332573 2.866535 10.931006 33.591083 5.903400 -0.000000 -52.717300 13.178682 1.171664 -0.763022 -0.923981 1.253320 -9.335651 -0.025786 -0.803510 14.582885 -2.407305 -10.818542 -6.190595 -0.923201 0.000000 -51.160000
0.072604 17.531157 -3.320447 97.677722 -78.576204 -92.205347 -7.212885 -3.976231 -0.912466 -10.952317 -12.232039 -71.107291 4.320210 5.194108 102.968173 2.882543 11.252432 33.505897 6.105000 0.000000 -52.894800 13.373844 1.356342 -1.118460 -1.457145 1.032653 -8.505342 -0.119362 -0.889097 14.724705 -2.420258 -10.945417 -5.987351 -0.966700 -0.000000 -51.656300
0.139435 17.529489 -3.347384 96.875479 -78.170969 -92.013744 -6.897027 -4.345404 -1.285021 -11.064852 -12.150026 -74.104910 4.656276 5.394490 105.263278 2.895828 11.573000 33.350832 6.299300 -0.000000 -52.792100 13.557199 1.549065 -1.482533 -2.002668 0.741638 -7.817909 -0.200193 -0.982246 15.035736 -2.414902 -10.954718 -5.871554 -0.980900 -0.000000 -52.204000
0.203975 17.523126 -3.373757 96.225987 -77.743233 -91.928751 -6.543421 -4.710274 -1.623853 -11.114312 -12.086778 -77.267148 4.966111 5.573785 107.183899 2.902770 11.829247 33.172721 6.451300 0.000000 -52.467400 13.729364 1.749962 -1.848940 -2.571707 0.389864 -7.282356 -0.268833 -1.081991 15.519612 -2.391246 -10.845792 -5.853171 -0.963100 -0.000000 -52.789900
